<mxfile host="app.diagrams.net" modified="2023-09-19T20:02:21.814Z" agent="Mozilla/5.0 (Windows NT 10.0; Win64; x64) AppleWebKit/537.36 (KHTML, like Gecko) Chrome/116.0.0.0 Safari/537.36" etag="gYgy08dD9J2L0SSFOZAR" version="21.7.4" type="device">
  <diagram name="Page-1" id="BGik1yyygY3QK5uJjSFS">
    <mxGraphModel dx="990" dy="2663" grid="1" gridSize="10" guides="1" tooltips="1" connect="1" arrows="1" fold="1" page="1" pageScale="1" pageWidth="850" pageHeight="1100" math="0" shadow="0">
      <root>
        <mxCell id="0" />
        <mxCell id="1" parent="0" />
        <mxCell id="8GoKNpcj1ouWw6SARgOH-78" value="" style="rounded=0;whiteSpace=wrap;html=1;fillColor=#d5e8d4;strokeColor=#82b366;" parent="1" vertex="1">
          <mxGeometry x="10.7" y="870" width="829.3" height="180" as="geometry" />
        </mxCell>
        <mxCell id="8GoKNpcj1ouWw6SARgOH-36" value="" style="whiteSpace=wrap;html=1;aspect=fixed;fillColor=#dae8fc;strokeColor=#6c8ebf;" parent="1" vertex="1">
          <mxGeometry x="10.700000000000045" y="40" width="830" height="830" as="geometry" />
        </mxCell>
        <mxCell id="8GoKNpcj1ouWw6SARgOH-2" value="&lt;span style=&quot;color: rgb(51, 51, 51); font-family: Helvetica; font-size: 24px; font-style: normal; font-variant-ligatures: normal; font-variant-caps: normal; letter-spacing: normal; orphans: 2; text-indent: 0px; text-transform: none; widows: 2; word-spacing: 0px; -webkit-text-stroke-width: 0px; background-color: rgb(251, 251, 251); text-decoration-thickness: initial; text-decoration-style: initial; text-decoration-color: initial; float: none; display: inline !important;&quot;&gt;Mythical Code Busters - GetFINHelp - Systems Engineering View&lt;/span&gt;" style="text;whiteSpace=wrap;html=1;fillColor=#f5f5f5;fontColor=#333333;strokeColor=#666666;align=center;fontSize=24;fontStyle=1" parent="1" vertex="1">
          <mxGeometry x="10" width="830" height="40" as="geometry" />
        </mxCell>
        <mxCell id="8GoKNpcj1ouWw6SARgOH-5" value="" style="rhombus;whiteSpace=wrap;html=1;fillColor=#f5f5f5;fontColor=#333333;strokeColor=#666666;" parent="1" vertex="1">
          <mxGeometry x="180" y="228" width="510" height="470" as="geometry" />
        </mxCell>
        <mxCell id="8GoKNpcj1ouWw6SARgOH-4" value="&lt;br style=&quot;font-size: 22px;&quot;&gt;&lt;span style=&quot;color: rgb(0, 0, 0); font-family: Helvetica; font-size: 22px; font-style: normal; font-variant-ligatures: normal; font-variant-caps: normal; letter-spacing: normal; orphans: 2; text-align: center; text-indent: 0px; text-transform: none; widows: 2; word-spacing: 0px; -webkit-text-stroke-width: 0px; background-color: rgb(255, 255, 255); text-decoration-thickness: initial; text-decoration-style: initial; text-decoration-color: initial; float: none; display: inline !important;&quot;&gt;System-of-Interest&lt;/span&gt;&lt;br style=&quot;border-color: var(--border-color); color: rgb(0, 0, 0); font-family: Helvetica; font-size: 22px; font-style: normal; font-variant-ligatures: normal; font-variant-caps: normal; letter-spacing: normal; orphans: 2; text-align: center; text-indent: 0px; text-transform: none; widows: 2; word-spacing: 0px; -webkit-text-stroke-width: 0px; background-color: rgb(255, 255, 255); text-decoration-thickness: initial; text-decoration-style: initial; text-decoration-color: initial;&quot;&gt;&lt;br style=&quot;font-size: 22px;&quot;&gt;" style="text;html=1;strokeColor=none;fillColor=none;align=center;verticalAlign=middle;whiteSpace=wrap;rounded=0;fontSize=22;fontStyle=1" parent="1" vertex="1">
          <mxGeometry x="330" y="507" width="200" height="70" as="geometry" />
        </mxCell>
        <mxCell id="QSDC08urogqkvMPz9PY0-15" style="edgeStyle=orthogonalEdgeStyle;rounded=0;orthogonalLoop=1;jettySize=auto;html=1;entryX=0.12;entryY=0.375;entryDx=0;entryDy=0;entryPerimeter=0;" edge="1" parent="1" source="8GoKNpcj1ouWw6SARgOH-7" target="8GoKNpcj1ouWw6SARgOH-5">
          <mxGeometry relative="1" as="geometry">
            <Array as="points">
              <mxPoint x="63" y="290" />
              <mxPoint x="162" y="290" />
            </Array>
          </mxGeometry>
        </mxCell>
        <mxCell id="8GoKNpcj1ouWw6SARgOH-7" value="&lt;font style=&quot;font-size: 18px; background-color: rgb(255, 255, 255);&quot;&gt;Apache&lt;/font&gt;" style="sketch=0;aspect=fixed;pointerEvents=1;shadow=0;dashed=0;html=1;strokeColor=none;labelPosition=center;verticalLabelPosition=bottom;verticalAlign=top;align=center;fillColor=#00188D;shape=mxgraph.mscae.enterprise.web_server;fontSize=18;" parent="1" vertex="1">
          <mxGeometry x="40" y="210" width="45.6" height="60" as="geometry" />
        </mxCell>
        <mxCell id="QSDC08urogqkvMPz9PY0-21" style="edgeStyle=orthogonalEdgeStyle;rounded=0;orthogonalLoop=1;jettySize=auto;html=1;entryX=0.431;entryY=0.919;entryDx=0;entryDy=0;entryPerimeter=0;" edge="1" parent="1" source="8GoKNpcj1ouWw6SARgOH-9" target="8GoKNpcj1ouWw6SARgOH-5">
          <mxGeometry relative="1" as="geometry">
            <Array as="points">
              <mxPoint x="400" y="718" />
            </Array>
          </mxGeometry>
        </mxCell>
        <mxCell id="8GoKNpcj1ouWw6SARgOH-9" value="&lt;font style=&quot;font-size: 18px; background-color: rgb(255, 255, 255);&quot;&gt;File Storage&lt;/font&gt;" style="sketch=0;points=[[0,0,0],[0.25,0,0],[0.5,0,0],[0.75,0,0],[1,0,0],[0,1,0],[0.25,1,0],[0.5,1,0],[0.75,1,0],[1,1,0],[0,0.25,0],[0,0.5,0],[0,0.75,0],[1,0.25,0],[1,0.5,0],[1,0.75,0]];outlineConnect=0;fontColor=#232F3E;fillColor=#7AA116;strokeColor=#ffffff;dashed=0;verticalLabelPosition=bottom;verticalAlign=top;align=center;html=1;fontSize=18;fontStyle=0;aspect=fixed;shape=mxgraph.aws4.resourceIcon;resIcon=mxgraph.aws4.elastic_file_system;" parent="1" vertex="1">
          <mxGeometry x="210" y="680" width="78" height="78" as="geometry" />
        </mxCell>
        <mxCell id="QSDC08urogqkvMPz9PY0-11" style="edgeStyle=orthogonalEdgeStyle;rounded=0;orthogonalLoop=1;jettySize=auto;html=1;entryX=0.887;entryY=0.385;entryDx=0;entryDy=0;entryPerimeter=0;" edge="1" parent="1" source="8GoKNpcj1ouWw6SARgOH-11" target="8GoKNpcj1ouWw6SARgOH-5">
          <mxGeometry relative="1" as="geometry">
            <Array as="points">
              <mxPoint x="770" y="320" />
              <mxPoint x="683" y="320" />
            </Array>
          </mxGeometry>
        </mxCell>
        <mxCell id="8GoKNpcj1ouWw6SARgOH-11" value="&lt;font style=&quot;font-size: 18px; background-color: rgb(255, 255, 255);&quot;&gt;Bank Employees&lt;/font&gt;" style="verticalLabelPosition=bottom;sketch=0;html=1;fillColor=#282828;strokeColor=none;verticalAlign=top;pointerEvents=1;align=center;shape=mxgraph.cisco_safe.people_places_things_icons.icon1;fontSize=18;" parent="1" vertex="1">
          <mxGeometry x="745" y="190" width="50.2" height="50" as="geometry" />
        </mxCell>
        <mxCell id="QSDC08urogqkvMPz9PY0-20" style="edgeStyle=orthogonalEdgeStyle;rounded=0;orthogonalLoop=1;jettySize=auto;html=1;entryX=0.627;entryY=0.87;entryDx=0;entryDy=0;entryPerimeter=0;" edge="1" parent="1" source="8GoKNpcj1ouWw6SARgOH-18" target="8GoKNpcj1ouWw6SARgOH-5">
          <mxGeometry relative="1" as="geometry" />
        </mxCell>
        <mxCell id="8GoKNpcj1ouWw6SARgOH-18" value="&lt;font style=&quot;font-size: 18px; background-color: rgb(255, 255, 255);&quot;&gt;Auditing&lt;/font&gt;" style="sketch=0;points=[[0,0,0],[0.25,0,0],[0.5,0,0],[0.75,0,0],[1,0,0],[0,1,0],[0.25,1,0],[0.5,1,0],[0.75,1,0],[1,1,0],[0,0.25,0],[0,0.5,0],[0,0.75,0],[1,0.25,0],[1,0.5,0],[1,0.75,0]];outlineConnect=0;fontColor=#232F3E;fillColor=#DD344C;strokeColor=#ffffff;dashed=0;verticalLabelPosition=bottom;verticalAlign=top;align=center;html=1;fontSize=18;fontStyle=0;aspect=fixed;shape=mxgraph.aws4.resourceIcon;resIcon=mxgraph.aws4.audit_manager;" parent="1" vertex="1">
          <mxGeometry x="513" y="673" width="78" height="78" as="geometry" />
        </mxCell>
        <mxCell id="QSDC08urogqkvMPz9PY0-19" style="edgeStyle=orthogonalEdgeStyle;rounded=0;orthogonalLoop=1;jettySize=auto;html=1;entryX=0.5;entryY=0;entryDx=0;entryDy=0;" edge="1" parent="1" source="8GoKNpcj1ouWw6SARgOH-22" target="8GoKNpcj1ouWw6SARgOH-5">
          <mxGeometry relative="1" as="geometry" />
        </mxCell>
        <mxCell id="8GoKNpcj1ouWw6SARgOH-33" value="&lt;font style=&quot;font-size: 18px; background-color: rgb(255, 255, 255);&quot;&gt;NextCloud Server&lt;/font&gt;" style="shape=mxgraph.cisco.servers.software_based_server;html=1;pointerEvents=1;dashed=0;fillColor=#036897;strokeColor=#ffffff;strokeWidth=2;verticalLabelPosition=bottom;verticalAlign=top;align=center;outlineConnect=0;fontSize=18;" parent="1" vertex="1">
          <mxGeometry x="393.2" y="400" width="65" height="58" as="geometry" />
        </mxCell>
        <mxCell id="QSDC08urogqkvMPz9PY0-18" style="edgeStyle=orthogonalEdgeStyle;rounded=0;orthogonalLoop=1;jettySize=auto;html=1;entryX=0.899;entryY=0.608;entryDx=0;entryDy=0;entryPerimeter=0;" edge="1" parent="1" source="8GoKNpcj1ouWw6SARgOH-34" target="8GoKNpcj1ouWw6SARgOH-5">
          <mxGeometry relative="1" as="geometry">
            <Array as="points">
              <mxPoint x="639" y="536" />
            </Array>
          </mxGeometry>
        </mxCell>
        <mxCell id="8GoKNpcj1ouWw6SARgOH-34" value="&lt;font style=&quot;font-size: 18px;&quot;&gt;Linux OS&lt;/font&gt;" style="sketch=0;pointerEvents=1;shadow=0;dashed=0;html=1;strokeColor=none;fillColor=#005F4B;labelPosition=center;verticalLabelPosition=bottom;verticalAlign=top;align=center;outlineConnect=0;shape=mxgraph.veeam2.linux_server;fontSize=18;labelBackgroundColor=default;" parent="1" vertex="1">
          <mxGeometry x="735.2" y="495" width="75" height="82" as="geometry" />
        </mxCell>
        <mxCell id="8GoKNpcj1ouWw6SARgOH-37" value="Environment of Operation" style="text;html=1;strokeColor=none;fillColor=none;align=center;verticalAlign=middle;whiteSpace=wrap;rounded=0;fontSize=22;fontStyle=1" parent="1" vertex="1">
          <mxGeometry x="269" y="30" width="322" height="70" as="geometry" />
        </mxCell>
        <mxCell id="8GoKNpcj1ouWw6SARgOH-45" style="edgeStyle=orthogonalEdgeStyle;rounded=0;orthogonalLoop=1;jettySize=auto;html=1;entryX=0;entryY=0;entryDx=0;entryDy=0;exitX=1;exitY=0.5;exitDx=0;exitDy=0;exitPerimeter=0;" parent="1" source="8GoKNpcj1ouWw6SARgOH-38" target="8GoKNpcj1ouWw6SARgOH-5" edge="1">
          <mxGeometry relative="1" as="geometry">
            <Array as="points">
              <mxPoint x="120" y="270" />
            </Array>
          </mxGeometry>
        </mxCell>
        <mxCell id="8GoKNpcj1ouWw6SARgOH-38" value="&lt;font style=&quot;font-size: 18px; background-color: rgb(255, 255, 255);&quot;&gt;VS CODE&lt;/font&gt;" style="verticalLabelPosition=bottom;html=1;verticalAlign=top;align=center;strokeColor=none;fillColor=#00BEF2;shape=mxgraph.azure.visual_studio_online;" parent="1" vertex="1">
          <mxGeometry x="40" y="70" width="80" height="50" as="geometry" />
        </mxCell>
        <mxCell id="QSDC08urogqkvMPz9PY0-10" style="edgeStyle=orthogonalEdgeStyle;rounded=0;orthogonalLoop=1;jettySize=auto;html=1;entryX=1;entryY=0;entryDx=0;entryDy=0;" edge="1" parent="1" source="8GoKNpcj1ouWw6SARgOH-46" target="8GoKNpcj1ouWw6SARgOH-5">
          <mxGeometry relative="1" as="geometry">
            <Array as="points">
              <mxPoint x="655" y="260" />
              <mxPoint x="563" y="260" />
            </Array>
          </mxGeometry>
        </mxCell>
        <mxCell id="8GoKNpcj1ouWw6SARgOH-46" value="&lt;font style=&quot;font-size: 18px; background-color: rgb(255, 255, 255);&quot;&gt;SIEM&lt;/font&gt;" style="verticalLabelPosition=bottom;sketch=0;html=1;fillColor=#6ABD46;strokeColor=#ffffff;verticalAlign=top;align=center;points=[[0.085,0.085,0],[0.915,0.085,0],[0.915,0.915,0],[0.085,0.915,0],[0.25,0,0],[0.5,0,0],[0.75,0,0],[1,0.25,0],[1,0.5,0],[1,0.75,0],[0.75,1,0],[0.5,1,0],[0.25,1,0],[0,0.75,0],[0,0.5,0],[0,0.25,0]];pointerEvents=1;shape=mxgraph.cisco_safe.compositeIcon;bgIcon=mxgraph.cisco_safe.architecture.generic_appliance;resIcon=mxgraph.cisco_safe.architecture.siem;" parent="1" vertex="1">
          <mxGeometry x="630" y="190" width="50" height="50" as="geometry" />
        </mxCell>
        <mxCell id="8GoKNpcj1ouWw6SARgOH-49" style="edgeStyle=orthogonalEdgeStyle;rounded=0;orthogonalLoop=1;jettySize=auto;html=1;entryX=0.445;entryY=0.052;entryDx=0;entryDy=0;entryPerimeter=0;exitX=0.972;exitY=0.491;exitDx=0;exitDy=0;exitPerimeter=0;" parent="1" source="8GoKNpcj1ouWw6SARgOH-48" target="8GoKNpcj1ouWw6SARgOH-5" edge="1">
          <mxGeometry relative="1" as="geometry">
            <Array as="points">
              <mxPoint x="250" y="252" />
            </Array>
          </mxGeometry>
        </mxCell>
        <mxCell id="8GoKNpcj1ouWw6SARgOH-48" value="&lt;font style=&quot;font-size: 18px;&quot;&gt;Web Server Unit Test&lt;/font&gt;" style="image;aspect=fixed;html=1;points=[];align=center;fontSize=12;image=img/lib/azure2/general/Web_Test.svg;" parent="1" vertex="1">
          <mxGeometry x="180" y="100" width="72" height="72" as="geometry" />
        </mxCell>
        <mxCell id="8GoKNpcj1ouWw6SARgOH-51" style="edgeStyle=orthogonalEdgeStyle;rounded=0;orthogonalLoop=1;jettySize=auto;html=1;entryX=0.614;entryY=0.115;entryDx=0;entryDy=0;entryPerimeter=0;exitX=0.5;exitY=0;exitDx=0;exitDy=0;" parent="1" source="8GoKNpcj1ouWw6SARgOH-50" target="8GoKNpcj1ouWw6SARgOH-5" edge="1">
          <mxGeometry relative="1" as="geometry">
            <Array as="points">
              <mxPoint x="700" y="110" />
              <mxPoint x="530" y="110" />
              <mxPoint x="530" y="282" />
            </Array>
          </mxGeometry>
        </mxCell>
        <mxCell id="8GoKNpcj1ouWw6SARgOH-50" value="&lt;font color=&quot;#000000&quot; style=&quot;font-size: 18px;&quot;&gt;Python Test Harness&lt;/font&gt;" style="image;aspect=fixed;perimeter=ellipsePerimeter;html=1;align=center;shadow=0;dashed=0;fontColor=#4277BB;labelBackgroundColor=default;fontSize=12;spacingTop=3;image=img/lib/ibm/devops/build_test.svg;" parent="1" vertex="1">
          <mxGeometry x="670" y="80" width="60" height="60" as="geometry" />
        </mxCell>
        <mxCell id="8GoKNpcj1ouWw6SARgOH-54" style="edgeStyle=orthogonalEdgeStyle;rounded=0;orthogonalLoop=1;jettySize=auto;html=1;entryX=1;entryY=1;entryDx=0;entryDy=0;" parent="1" source="8GoKNpcj1ouWw6SARgOH-52" target="8GoKNpcj1ouWw6SARgOH-5" edge="1">
          <mxGeometry relative="1" as="geometry">
            <Array as="points">
              <mxPoint x="713" y="610" />
            </Array>
          </mxGeometry>
        </mxCell>
        <mxCell id="8GoKNpcj1ouWw6SARgOH-52" value="&lt;font style=&quot;font-size: 18px;&quot;&gt;Authentication and MFA&lt;/font&gt;" style="image;aspect=fixed;html=1;points=[];align=center;fontSize=12;image=img/lib/azure2/intune/Azure_AD_Roles_and_Administrators.svg;" parent="1" vertex="1">
          <mxGeometry x="681" y="680" width="64" height="64" as="geometry" />
        </mxCell>
        <mxCell id="8GoKNpcj1ouWw6SARgOH-58" style="edgeStyle=orthogonalEdgeStyle;rounded=0;orthogonalLoop=1;jettySize=auto;html=1;entryX=0;entryY=1;entryDx=0;entryDy=0;" parent="1" source="8GoKNpcj1ouWw6SARgOH-55" target="8GoKNpcj1ouWw6SARgOH-5" edge="1">
          <mxGeometry relative="1" as="geometry">
            <Array as="points">
              <mxPoint x="116" y="610" />
            </Array>
          </mxGeometry>
        </mxCell>
        <mxCell id="8GoKNpcj1ouWw6SARgOH-55" value="&lt;font style=&quot;font-size: 18px;&quot;&gt;PHP Unit Test&lt;/font&gt;" style="image;aspect=fixed;html=1;points=[];align=center;fontSize=12;image=img/lib/azure2/general/Web_Test.svg;" parent="1" vertex="1">
          <mxGeometry x="50" y="500" width="72" height="72" as="geometry" />
        </mxCell>
        <mxCell id="QSDC08urogqkvMPz9PY0-8" style="edgeStyle=orthogonalEdgeStyle;rounded=0;orthogonalLoop=1;jettySize=auto;html=1;entryX=0.299;entryY=0.812;entryDx=0;entryDy=0;entryPerimeter=0;" edge="1" parent="1" source="8GoKNpcj1ouWw6SARgOH-59" target="8GoKNpcj1ouWw6SARgOH-5">
          <mxGeometry relative="1" as="geometry">
            <Array as="points">
              <mxPoint x="332" y="670" />
            </Array>
          </mxGeometry>
        </mxCell>
        <mxCell id="8GoKNpcj1ouWw6SARgOH-59" value="&lt;font style=&quot;font-size: 18px; background-color: rgb(255, 255, 255);&quot;&gt;Mobile App Unit Test&lt;/font&gt;" style="sketch=0;points=[[0,0,0],[0.25,0,0],[0.5,0,0],[0.75,0,0],[1,0,0],[0,1,0],[0.25,1,0],[0.5,1,0],[0.75,1,0],[1,1,0],[0,0.25,0],[0,0.5,0],[0,0.75,0],[1,0.25,0],[1,0.5,0],[1,0.75,0]];outlineConnect=0;fontColor=#232F3E;fillColor=#E7157B;strokeColor=#ffffff;dashed=0;verticalLabelPosition=bottom;verticalAlign=top;align=center;html=1;fontSize=12;fontStyle=0;aspect=fixed;shape=mxgraph.aws4.resourceIcon;resIcon=mxgraph.aws4.mobile_application;" parent="1" vertex="1">
          <mxGeometry x="60" y="620" width="78" height="78" as="geometry" />
        </mxCell>
        <mxCell id="8GoKNpcj1ouWw6SARgOH-76" style="edgeStyle=orthogonalEdgeStyle;rounded=0;orthogonalLoop=1;jettySize=auto;html=1;entryX=0.5;entryY=1;entryDx=0;entryDy=0;" parent="1" source="8GoKNpcj1ouWw6SARgOH-66" target="8GoKNpcj1ouWw6SARgOH-5" edge="1">
          <mxGeometry relative="1" as="geometry" />
        </mxCell>
        <mxCell id="8GoKNpcj1ouWw6SARgOH-66" value="&lt;font style=&quot;font-size: 18px; background-color: rgb(255, 255, 255);&quot;&gt;Github Contributors&lt;br style=&quot;border-color: var(--border-color);&quot;&gt;Open-Source Devs&lt;/font&gt;" style="verticalLabelPosition=bottom;html=1;verticalAlign=top;align=center;strokeColor=none;fillColor=#00BEF2;shape=mxgraph.azure.github_code;pointerEvents=1;" parent="1" vertex="1">
          <mxGeometry x="170" y="880" width="50" height="50" as="geometry" />
        </mxCell>
        <mxCell id="8GoKNpcj1ouWw6SARgOH-72" style="edgeStyle=orthogonalEdgeStyle;rounded=0;orthogonalLoop=1;jettySize=auto;html=1;" parent="1" source="8GoKNpcj1ouWw6SARgOH-67" target="8GoKNpcj1ouWw6SARgOH-5" edge="1">
          <mxGeometry relative="1" as="geometry" />
        </mxCell>
        <mxCell id="8GoKNpcj1ouWw6SARgOH-67" value="&lt;font style=&quot;font-size: 18px; background-color: rgb(255, 255, 255);&quot;&gt;Bank Management Software &lt;br&gt;(BMS)&lt;/font&gt;" style="image;aspect=fixed;perimeter=ellipsePerimeter;html=1;align=center;shadow=0;dashed=0;spacingTop=3;image=img/lib/active_directory/generic_server.svg;" parent="1" vertex="1">
          <mxGeometry x="660" y="880" width="28.000000000000004" height="50" as="geometry" />
        </mxCell>
        <mxCell id="8GoKNpcj1ouWw6SARgOH-75" style="edgeStyle=orthogonalEdgeStyle;rounded=0;orthogonalLoop=1;jettySize=auto;html=1;entryX=0.5;entryY=1;entryDx=0;entryDy=0;" parent="1" source="8GoKNpcj1ouWw6SARgOH-70" target="8GoKNpcj1ouWw6SARgOH-5" edge="1">
          <mxGeometry relative="1" as="geometry" />
        </mxCell>
        <mxCell id="8GoKNpcj1ouWw6SARgOH-70" value="&lt;font style=&quot;font-size: 18px; background-color: rgb(255, 255, 255);&quot;&gt;Federal Reserve &lt;br&gt;Examiner Tools&lt;/font&gt;" style="html=1;verticalLabelPosition=bottom;align=center;labelBackgroundColor=#ffffff;verticalAlign=top;strokeWidth=2;strokeColor=#0080F0;shadow=0;dashed=0;shape=mxgraph.ios7.icons.tools;pointerEvents=1" parent="1" vertex="1">
          <mxGeometry x="418.65" y="890.15" width="29.7" height="29.7" as="geometry" />
        </mxCell>
        <mxCell id="8GoKNpcj1ouWw6SARgOH-79" value="Outside Enabling Systems" style="text;html=1;strokeColor=none;fillColor=none;align=center;verticalAlign=middle;whiteSpace=wrap;rounded=0;fontSize=22;fontStyle=1" parent="1" vertex="1">
          <mxGeometry x="280.25" y="990" width="289.5" height="70" as="geometry" />
        </mxCell>
        <mxCell id="QSDC08urogqkvMPz9PY0-12" style="edgeStyle=orthogonalEdgeStyle;rounded=0;orthogonalLoop=1;jettySize=auto;html=1;entryX=1;entryY=0.5;entryDx=0;entryDy=0;" edge="1" parent="1" source="QSDC08urogqkvMPz9PY0-9" target="8GoKNpcj1ouWw6SARgOH-5">
          <mxGeometry relative="1" as="geometry" />
        </mxCell>
        <mxCell id="QSDC08urogqkvMPz9PY0-9" value="&lt;span style=&quot;background-color: rgb(255, 255, 255);&quot;&gt;Bank Customers&lt;/span&gt;" style="verticalLabelPosition=bottom;sketch=0;html=1;fillColor=#282828;strokeColor=none;verticalAlign=top;pointerEvents=1;align=center;shape=mxgraph.cisco_safe.people_places_things_icons.icon1;fontSize=18;" vertex="1" parent="1">
          <mxGeometry x="760" y="330" width="50.2" height="50" as="geometry" />
        </mxCell>
        <mxCell id="QSDC08urogqkvMPz9PY0-17" style="edgeStyle=orthogonalEdgeStyle;rounded=0;orthogonalLoop=1;jettySize=auto;html=1;entryX=0;entryY=0.5;entryDx=0;entryDy=0;" edge="1" parent="1" source="QSDC08urogqkvMPz9PY0-16" target="8GoKNpcj1ouWw6SARgOH-5">
          <mxGeometry relative="1" as="geometry" />
        </mxCell>
        <mxCell id="QSDC08urogqkvMPz9PY0-16" value="&lt;font style=&quot;font-size: 18px;&quot;&gt;Cloud Servers&lt;/font&gt;" style="image;html=1;image=img/lib/clip_art/networking/Cloud_Server_Private_128x128.png;fontSize=18;" vertex="1" parent="1">
          <mxGeometry x="22.80000000000001" y="320" width="80" height="80" as="geometry" />
        </mxCell>
        <mxCell id="8GoKNpcj1ouWw6SARgOH-22" value="&lt;font style=&quot;font-size: 18px; background-color: rgb(255, 255, 255);&quot;&gt;Access Controls&lt;/font&gt;" style="verticalLabelPosition=bottom;html=1;verticalAlign=top;align=center;strokeColor=none;fillColor=#00BEF2;shape=mxgraph.azure.access_control;fontSize=18;" parent="1" vertex="1">
          <mxGeometry x="399.65" y="106" width="70" height="60" as="geometry" />
        </mxCell>
      </root>
    </mxGraphModel>
  </diagram>
</mxfile>
